<?xml version="1.0" encoding="utf-8"?>
<svg version="1.1" xmlns="http://www.w3.org/2000/svg" xmlns:xlink="http://www.w3.org/1999/xlink" width="300" height="1800">
<rect fill="#fefae0" width="300" height="1800" />
<g>
  <rect fill="#fff" x="5" y="5" class="st0" width="290" height="290" rx="30" ry="30" stroke="black" stroke-width="10"/>
  <circle cx="150" cy="150" r="30"/>
</g>

<g>
  <rect fill="#fff" x="5" y="305" class="st0" width="290" height="290" rx="30" ry="30" stroke="black" stroke-width="10"/>
  <circle cx="75" cy="535" r="30"/>
  <circle cx="225" cy="365" r="30"/>
</g>

<g>
  <rect fill="#fff" x="5" y="605" class="st0" width="290" height="290" rx="30" ry="30" stroke="black" stroke-width="10"/>
  <circle cx="75" cy="835" r="30"/>
  <circle cx="225" cy="665" r="30"/>
  <circle cx="150" cy="750" r="30"/>
</g>

<g>
  <rect fill="#fff" x="5" y="905" class="st0" width="290" height="290" rx="30" ry="30" stroke="black" stroke-width="10"/>
  <circle cx="75" cy="965" r="30"/>
  <circle cx="75" cy="1135" r="30"/>
  <circle cx="225" cy="965" r="30"/>
  <circle cx="225" cy="1135" r="30"/>
</g>

<g>
  <rect fill="#fff" x="5" y="1205" class="st0" width="290" height="290" rx="30" ry="30" stroke="black" stroke-width="10"/>
  <circle cx="75" cy="1265" r="30"/>
  <circle cx="75" cy="1435" r="30"/>
  <circle cx="225" cy="1265" r="30"/>
  <circle cx="150" cy="1350" r="30"/>
  <circle cx="225" cy="1435" r="30"/>
</g>

<g>
  <rect fill="#fff" x="5" y="1505" class="st0" width="290" height="290" rx="30" ry="30" stroke="black" stroke-width="10"/>
  <circle cx="75" cy="1565" r="30"/>
  <circle cx="75" cy="1735" r="30"/>
  <circle cx="225" cy="1565" r="30"/>
  <circle cx="75" cy="1650" r="30"/>
  <circle cx="225" cy="1650" r="30"/>
  <circle cx="225" cy="1735" r="30"/>
</g>

</svg>